# xmcd
#
# Track frame offsets:
#	150
#	39595
#	73562
#	96262
#	118472
#	147507
#	167937
#	210025
#	235920
#	260932
#
# Disc length: 3913 seconds
#
# Revision: 1
# Processed by: cddbd v1.4PL0 Copyright (c) Steve Scherf et al.
# Submitted via: audiograbber 1.81.03
#
DISCID=990f470a
DTITLE=Various Artist - Chicago Blues Night
DYEAR=1991
DGENRE=Blues
TTITLE0=Jimmy Reed, Deitra Farr - Bright Lights Big City
TTITLE1=Deitra Farr, Chicago Beau - Worried Life Blues
TTITLE2=Deitra Farr, Chicago Beau - Queen Bee
TTITLE3=B. Scott, Tommy McCracken - One Eyed Woman
TTITLE4=Tommy McCracken - I'll Take Care Of You
TTITLE5=Son Seals, Tommy McCracken - Cold Blood
TTITLE6=Katherine Davis - Having A Good Time Momma
TTITLE7=Katherine Davis - I've Been There Before
TTITLE8=Chicago Beau, Jim Conley - Hoodoo Man Blues
TTITLE9=R. Miller, Chicago Beau - Help Me
EXTD=
EXTT0=
EXTT1=
EXTT2=
EXTT3=
EXTT4=
EXTT5=
EXTT6=
EXTT7=
EXTT8=
EXTT9=
PLAYORDER=
